<?xml version="1.0" encoding="utf-8" standalone="no"?>
<!DOCTYPE svg PUBLIC "-//W3C//DTD SVG 1.1//EN"
  "http://www.w3.org/Graphics/SVG/1.1/DTD/svg11.dtd">
<!-- Created with matplotlib (https://matplotlib.org/) -->
<svg height="345.6pt" version="1.1" viewBox="0 0 460.8 345.6" width="460.8pt" xmlns="http://www.w3.org/2000/svg" xmlns:xlink="http://www.w3.org/1999/xlink">
 <metadata>
  <rdf:RDF xmlns:cc="http://creativecommons.org/ns#" xmlns:dc="http://purl.org/dc/elements/1.1/" xmlns:rdf="http://www.w3.org/1999/02/22-rdf-syntax-ns#">
   <cc:Work>
    <dc:type rdf:resource="http://purl.org/dc/dcmitype/StillImage"/>
    <dc:date>2020-07-24T16:28:14.542609</dc:date>
    <dc:format>image/svg+xml</dc:format>
    <dc:creator>
     <cc:Agent>
      <dc:title>Matplotlib v3.3.0, https://matplotlib.org/</dc:title>
     </cc:Agent>
    </dc:creator>
   </cc:Work>
  </rdf:RDF>
 </metadata>
 <defs>
  <style type="text/css">*{stroke-linecap:butt;stroke-linejoin:round;}</style>
 </defs>
 <g id="figure_1">
  <g id="patch_1">
   <path d="M 0 345.6 
L 460.8 345.6 
L 460.8 0 
L 0 0 
z
" style="fill:#ffffff;"/>
  </g>
  <g id="axes_1">
   <g id="patch_2">
    <path d="M 57.6 307.584 
L 414.72 307.584 
L 414.72 41.472 
L 57.6 41.472 
z
" style="fill:#ffffff;"/>
   </g>
   <g id="patch_3">
    <path clip-path="url(#p6941a998bb)" d="M 73.832727 266.933508 
L 75.614097 266.933508 
L 75.614097 264.553967 
L 73.832727 264.553967 
z
" style="fill:#1f77b4;"/>
   </g>
   <g id="patch_4">
    <path clip-path="url(#p6941a998bb)" d="M 76.059439 266.933508 
L 77.840808 266.933508 
L 77.840808 261.381246 
L 76.059439 261.381246 
z
" style="fill:#1f77b4;"/>
   </g>
   <g id="patch_5">
    <path clip-path="url(#p6941a998bb)" d="M 78.28615 266.933508 
L 80.06752 266.933508 
L 80.06752 263.760787 
L 78.28615 263.760787 
z
" style="fill:#1f77b4;"/>
   </g>
   <g id="patch_6">
    <path clip-path="url(#p6941a998bb)" d="M 80.512862 266.933508 
L 82.294231 266.933508 
L 82.294231 261.381246 
L 80.512862 261.381246 
z
" style="fill:#1f77b4;"/>
   </g>
   <g id="patch_7">
    <path clip-path="url(#p6941a998bb)" d="M 82.739574 266.933508 
L 84.520943 266.933508 
L 84.520943 258.208525 
L 82.739574 258.208525 
z
" style="fill:#1f77b4;"/>
   </g>
   <g id="patch_8">
    <path clip-path="url(#p6941a998bb)" d="M 84.966285 266.933508 
L 86.747654 266.933508 
L 86.747654 251.863082 
L 84.966285 251.863082 
z
" style="fill:#1f77b4;"/>
   </g>
   <g id="patch_9">
    <path clip-path="url(#p6941a998bb)" d="M 87.192997 266.933508 
L 88.974366 266.933508 
L 88.974366 261.381246 
L 87.192997 261.381246 
z
" style="fill:#1f77b4;"/>
   </g>
   <g id="patch_10">
    <path clip-path="url(#p6941a998bb)" d="M 89.419708 266.933508 
L 91.201077 266.933508 
L 91.201077 256.622164 
L 89.419708 256.622164 
z
" style="fill:#1f77b4;"/>
   </g>
   <g id="patch_11">
    <path clip-path="url(#p6941a998bb)" d="M 91.64642 266.933508 
L 93.427789 266.933508 
L 93.427789 251.863082 
L 91.64642 251.863082 
z
" style="fill:#1f77b4;"/>
   </g>
   <g id="patch_12">
    <path clip-path="url(#p6941a998bb)" d="M 93.873131 266.933508 
L 95.654501 266.933508 
L 95.654501 246.31082 
L 93.873131 246.31082 
z
" style="fill:#1f77b4;"/>
   </g>
   <g id="patch_13">
    <path clip-path="url(#p6941a998bb)" d="M 96.099843 266.933508 
L 97.881212 266.933508 
L 97.881212 208.238164 
L 96.099843 208.238164 
z
" style="fill:#1f77b4;"/>
   </g>
   <g id="patch_14">
    <path clip-path="url(#p6941a998bb)" d="M 98.326554 266.933508 
L 100.107924 266.933508 
L 100.107924 232.033574 
L 98.326554 232.033574 
z
" style="fill:#1f77b4;"/>
   </g>
   <g id="patch_15">
    <path clip-path="url(#p6941a998bb)" d="M 100.553266 266.933508 
L 102.334635 266.933508 
L 102.334635 238.379016 
L 100.553266 238.379016 
z
" style="fill:#1f77b4;"/>
   </g>
   <g id="patch_16">
    <path clip-path="url(#p6941a998bb)" d="M 102.779978 266.933508 
L 104.561347 266.933508 
L 104.561347 220.929049 
L 102.779978 220.929049 
z
" style="fill:#1f77b4;"/>
   </g>
   <g id="patch_17">
    <path clip-path="url(#p6941a998bb)" d="M 105.006689 266.933508 
L 106.788058 266.933508 
L 106.788058 219.342689 
L 105.006689 219.342689 
z
" style="fill:#1f77b4;"/>
   </g>
   <g id="patch_18">
    <path clip-path="url(#p6941a998bb)" d="M 107.233401 266.933508 
L 109.01477 266.933508 
L 109.01477 241.551738 
L 107.233401 241.551738 
z
" style="fill:#1f77b4;"/>
   </g>
   <g id="patch_19">
    <path clip-path="url(#p6941a998bb)" d="M 109.460112 266.933508 
L 111.241481 266.933508 
L 111.241481 212.997246 
L 109.460112 212.997246 
z
" style="fill:#1f77b4;"/>
   </g>
   <g id="patch_20">
    <path clip-path="url(#p6941a998bb)" d="M 111.686824 266.933508 
L 113.468193 266.933508 
L 113.468193 243.931279 
L 111.686824 243.931279 
z
" style="fill:#1f77b4;"/>
   </g>
   <g id="patch_21">
    <path clip-path="url(#p6941a998bb)" d="M 113.913535 266.933508 
L 115.694905 266.933508 
L 115.694905 231.240393 
L 113.913535 231.240393 
z
" style="fill:#1f77b4;"/>
   </g>
   <g id="patch_22">
    <path clip-path="url(#p6941a998bb)" d="M 116.140247 266.933508 
L 117.921616 266.933508 
L 117.921616 163.820066 
L 116.140247 163.820066 
z
" style="fill:#1f77b4;"/>
   </g>
   <g id="patch_23">
    <path clip-path="url(#p6941a998bb)" d="M 118.366958 266.933508 
L 120.148328 266.933508 
L 120.148328 186.822295 
L 118.366958 186.822295 
z
" style="fill:#1f77b4;"/>
   </g>
   <g id="patch_24">
    <path clip-path="url(#p6941a998bb)" d="M 120.59367 266.933508 
L 122.375039 266.933508 
L 122.375039 155.095082 
L 120.59367 155.095082 
z
" style="fill:#1f77b4;"/>
   </g>
   <g id="patch_25">
    <path clip-path="url(#p6941a998bb)" d="M 122.820382 266.933508 
L 124.601751 266.933508 
L 124.601751 186.822295 
L 122.820382 186.822295 
z
" style="fill:#1f77b4;"/>
   </g>
   <g id="patch_26">
    <path clip-path="url(#p6941a998bb)" d="M 125.047093 266.933508 
L 126.828462 266.933508 
L 126.828462 163.820066 
L 125.047093 163.820066 
z
" style="fill:#1f77b4;"/>
   </g>
   <g id="patch_27">
    <path clip-path="url(#p6941a998bb)" d="M 127.273805 266.933508 
L 129.055174 266.933508 
L 129.055174 178.097311 
L 127.273805 178.097311 
z
" style="fill:#1f77b4;"/>
   </g>
   <g id="patch_28">
    <path clip-path="url(#p6941a998bb)" d="M 129.500516 266.933508 
L 131.281886 266.933508 
L 131.281886 201.892721 
L 129.500516 201.892721 
z
" style="fill:#1f77b4;"/>
   </g>
   <g id="patch_29">
    <path clip-path="url(#p6941a998bb)" d="M 131.727228 266.933508 
L 133.508597 266.933508 
L 133.508597 93.227016 
L 131.727228 93.227016 
z
" style="fill:#1f77b4;"/>
   </g>
   <g id="patch_30">
    <path clip-path="url(#p6941a998bb)" d="M 133.953939 266.933508 
L 135.735309 266.933508 
L 135.735309 67.845246 
L 133.953939 67.845246 
z
" style="fill:#1f77b4;"/>
   </g>
   <g id="patch_31">
    <path clip-path="url(#p6941a998bb)" d="M 136.180651 266.933508 
L 137.96202 266.933508 
L 137.96202 69.431607 
L 136.180651 69.431607 
z
" style="fill:#1f77b4;"/>
   </g>
   <g id="patch_32">
    <path clip-path="url(#p6941a998bb)" d="M 138.407363 266.933508 
L 140.188732 266.933508 
L 140.188732 200.306361 
L 138.407363 200.306361 
z
" style="fill:#1f77b4;"/>
   </g>
   <g id="patch_33">
    <path clip-path="url(#p6941a998bb)" d="M 140.634074 266.933508 
L 142.415443 266.933508 
L 142.415443 132.886033 
L 140.634074 132.886033 
z
" style="fill:#1f77b4;"/>
   </g>
   <g id="patch_34">
    <path clip-path="url(#p6941a998bb)" d="M 142.860786 266.933508 
L 144.642155 266.933508 
L 144.642155 266.933508 
L 142.860786 266.933508 
z
" style="fill:#1f77b4;"/>
   </g>
   <g id="patch_35">
    <path clip-path="url(#p6941a998bb)" d="M 145.087497 266.933508 
L 146.868866 266.933508 
L 146.868866 135.265574 
L 145.087497 135.265574 
z
" style="fill:#1f77b4;"/>
   </g>
   <g id="patch_36">
    <path clip-path="url(#p6941a998bb)" d="M 147.314209 266.933508 
L 149.095578 266.933508 
L 149.095578 140.024656 
L 147.314209 140.024656 
z
" style="fill:#1f77b4;"/>
   </g>
   <g id="patch_37">
    <path clip-path="url(#p6941a998bb)" d="M 149.54092 266.933508 
L 151.32229 266.933508 
L 151.32229 163.026885 
L 149.54092 163.026885 
z
" style="fill:#1f77b4;"/>
   </g>
   <g id="patch_38">
    <path clip-path="url(#p6941a998bb)" d="M 151.767632 266.933508 
L 153.549001 266.933508 
L 153.549001 178.890492 
L 151.767632 178.890492 
z
" style="fill:#1f77b4;"/>
   </g>
   <g id="patch_39">
    <path clip-path="url(#p6941a998bb)" d="M 153.994343 266.933508 
L 155.775713 266.933508 
L 155.775713 53.568 
L 153.994343 53.568 
z
" style="fill:#1f77b4;"/>
   </g>
   <g id="patch_40">
    <path clip-path="url(#p6941a998bb)" d="M 156.221055 266.933508 
L 158.002424 266.933508 
L 158.002424 136.851934 
L 156.221055 136.851934 
z
" style="fill:#1f77b4;"/>
   </g>
   <g id="patch_41">
    <path clip-path="url(#p6941a998bb)" d="M 158.447767 266.933508 
L 160.229136 266.933508 
L 160.229136 143.990557 
L 158.447767 143.990557 
z
" style="fill:#1f77b4;"/>
   </g>
   <g id="patch_42">
    <path clip-path="url(#p6941a998bb)" d="M 160.674478 266.933508 
L 162.455847 266.933508 
L 162.455847 106.711082 
L 160.674478 106.711082 
z
" style="fill:#1f77b4;"/>
   </g>
   <g id="patch_43">
    <path clip-path="url(#p6941a998bb)" d="M 162.90119 266.933508 
L 164.682559 266.933508 
L 164.682559 109.883803 
L 162.90119 109.883803 
z
" style="fill:#1f77b4;"/>
   </g>
   <g id="patch_44">
    <path clip-path="url(#p6941a998bb)" d="M 165.127901 266.933508 
L 166.90927 266.933508 
L 166.90927 83.708852 
L 165.127901 83.708852 
z
" style="fill:#1f77b4;"/>
   </g>
   <g id="patch_45">
    <path clip-path="url(#p6941a998bb)" d="M 167.354613 266.933508 
L 169.135982 266.933508 
L 169.135982 151.922361 
L 167.354613 151.922361 
z
" style="fill:#1f77b4;"/>
   </g>
   <g id="patch_46">
    <path clip-path="url(#p6941a998bb)" d="M 169.581324 266.933508 
L 171.362694 266.933508 
L 171.362694 136.851934 
L 169.581324 136.851934 
z
" style="fill:#1f77b4;"/>
   </g>
   <g id="patch_47">
    <path clip-path="url(#p6941a998bb)" d="M 171.808036 266.933508 
L 173.589405 266.933508 
L 173.589405 169.372328 
L 171.808036 169.372328 
z
" style="fill:#1f77b4;"/>
   </g>
   <g id="patch_48">
    <path clip-path="url(#p6941a998bb)" d="M 174.034747 266.933508 
L 175.816117 266.933508 
L 175.816117 210.617705 
L 174.034747 210.617705 
z
" style="fill:#1f77b4;"/>
   </g>
   <g id="patch_49">
    <path clip-path="url(#p6941a998bb)" d="M 176.261459 266.933508 
L 178.042828 266.933508 
L 178.042828 205.858623 
L 176.261459 205.858623 
z
" style="fill:#1f77b4;"/>
   </g>
   <g id="patch_50">
    <path clip-path="url(#p6941a998bb)" d="M 178.488171 266.933508 
L 180.26954 266.933508 
L 180.26954 178.097311 
L 178.488171 178.097311 
z
" style="fill:#1f77b4;"/>
   </g>
   <g id="patch_51">
    <path clip-path="url(#p6941a998bb)" d="M 180.714882 266.933508 
L 182.496251 266.933508 
L 182.496251 193.167738 
L 180.714882 193.167738 
z
" style="fill:#1f77b4;"/>
   </g>
   <g id="patch_52">
    <path clip-path="url(#p6941a998bb)" d="M 182.941594 266.933508 
L 184.722963 266.933508 
L 184.722963 139.231475 
L 182.941594 139.231475 
z
" style="fill:#1f77b4;"/>
   </g>
   <g id="patch_53">
    <path clip-path="url(#p6941a998bb)" d="M 185.168305 266.933508 
L 186.949675 266.933508 
L 186.949675 180.476852 
L 185.168305 180.476852 
z
" style="fill:#1f77b4;"/>
   </g>
   <g id="patch_54">
    <path clip-path="url(#p6941a998bb)" d="M 187.395017 266.933508 
L 189.176386 266.933508 
L 189.176386 170.958689 
L 187.395017 170.958689 
z
" style="fill:#1f77b4;"/>
   </g>
   <g id="patch_55">
    <path clip-path="url(#p6941a998bb)" d="M 189.621728 266.933508 
L 191.403098 266.933508 
L 191.403098 198.72 
L 189.621728 198.72 
z
" style="fill:#1f77b4;"/>
   </g>
   <g id="patch_56">
    <path clip-path="url(#p6941a998bb)" d="M 191.84844 266.933508 
L 193.629809 266.933508 
L 193.629809 211.410885 
L 191.84844 211.410885 
z
" style="fill:#1f77b4;"/>
   </g>
   <g id="patch_57">
    <path clip-path="url(#p6941a998bb)" d="M 194.075152 266.933508 
L 195.856521 266.933508 
L 195.856521 171.751869 
L 194.075152 171.751869 
z
" style="fill:#1f77b4;"/>
   </g>
   <g id="patch_58">
    <path clip-path="url(#p6941a998bb)" d="M 196.301863 266.933508 
L 198.083232 266.933508 
L 198.083232 171.751869 
L 196.301863 171.751869 
z
" style="fill:#1f77b4;"/>
   </g>
   <g id="patch_59">
    <path clip-path="url(#p6941a998bb)" d="M 198.528575 266.933508 
L 200.309944 266.933508 
L 200.309944 170.165508 
L 198.528575 170.165508 
z
" style="fill:#1f77b4;"/>
   </g>
   <g id="patch_60">
    <path clip-path="url(#p6941a998bb)" d="M 200.755286 266.933508 
L 202.536655 266.933508 
L 202.536655 186.822295 
L 200.755286 186.822295 
z
" style="fill:#1f77b4;"/>
   </g>
   <g id="patch_61">
    <path clip-path="url(#p6941a998bb)" d="M 202.981998 266.933508 
L 204.763367 266.933508 
L 204.763367 205.065443 
L 202.981998 205.065443 
z
" style="fill:#1f77b4;"/>
   </g>
   <g id="patch_62">
    <path clip-path="url(#p6941a998bb)" d="M 205.208709 266.933508 
L 206.990079 266.933508 
L 206.990079 216.169967 
L 205.208709 216.169967 
z
" style="fill:#1f77b4;"/>
   </g>
   <g id="patch_63">
    <path clip-path="url(#p6941a998bb)" d="M 207.435421 266.933508 
L 209.21679 266.933508 
L 209.21679 165.406426 
L 207.435421 165.406426 
z
" style="fill:#1f77b4;"/>
   </g>
   <g id="patch_64">
    <path clip-path="url(#p6941a998bb)" d="M 209.662132 266.933508 
L 211.443502 266.933508 
L 211.443502 166.992787 
L 209.662132 166.992787 
z
" style="fill:#1f77b4;"/>
   </g>
   <g id="patch_65">
    <path clip-path="url(#p6941a998bb)" d="M 211.888844 266.933508 
L 213.670213 266.933508 
L 213.670213 188.408656 
L 211.888844 188.408656 
z
" style="fill:#1f77b4;"/>
   </g>
   <g id="patch_66">
    <path clip-path="url(#p6941a998bb)" d="M 214.115556 266.933508 
L 215.896925 266.933508 
L 215.896925 189.201836 
L 214.115556 189.201836 
z
" style="fill:#1f77b4;"/>
   </g>
   <g id="patch_67">
    <path clip-path="url(#p6941a998bb)" d="M 216.342267 266.933508 
L 218.123636 266.933508 
L 218.123636 177.304131 
L 216.342267 177.304131 
z
" style="fill:#1f77b4;"/>
   </g>
   <g id="patch_68">
    <path clip-path="url(#p6941a998bb)" d="M 218.568979 266.933508 
L 220.350348 266.933508 
L 220.350348 295.488 
L 218.568979 295.488 
z
" style="fill:#1f77b4;"/>
   </g>
   <g id="patch_69">
    <path clip-path="url(#p6941a998bb)" d="M 220.79569 266.933508 
L 222.577059 266.933508 
L 222.577059 210.617705 
L 220.79569 210.617705 
z
" style="fill:#1f77b4;"/>
   </g>
   <g id="patch_70">
    <path clip-path="url(#p6941a998bb)" d="M 223.022402 266.933508 
L 224.803771 266.933508 
L 224.803771 174.13141 
L 223.022402 174.13141 
z
" style="fill:#1f77b4;"/>
   </g>
   <g id="patch_71">
    <path clip-path="url(#p6941a998bb)" d="M 225.249113 266.933508 
L 227.030483 266.933508 
L 227.030483 193.167738 
L 225.249113 193.167738 
z
" style="fill:#1f77b4;"/>
   </g>
   <g id="patch_72">
    <path clip-path="url(#p6941a998bb)" d="M 227.475825 266.933508 
L 229.257194 266.933508 
L 229.257194 205.858623 
L 227.475825 205.858623 
z
" style="fill:#1f77b4;"/>
   </g>
   <g id="patch_73">
    <path clip-path="url(#p6941a998bb)" d="M 229.702536 266.933508 
L 231.483906 266.933508 
L 231.483906 219.342689 
L 229.702536 219.342689 
z
" style="fill:#1f77b4;"/>
   </g>
   <g id="patch_74">
    <path clip-path="url(#p6941a998bb)" d="M 231.929248 266.933508 
L 233.710617 266.933508 
L 233.710617 230.447213 
L 231.929248 230.447213 
z
" style="fill:#1f77b4;"/>
   </g>
   <g id="patch_75">
    <path clip-path="url(#p6941a998bb)" d="M 234.15596 266.933508 
L 235.937329 266.933508 
L 235.937329 212.204066 
L 234.15596 212.204066 
z
" style="fill:#1f77b4;"/>
   </g>
   <g id="patch_76">
    <path clip-path="url(#p6941a998bb)" d="M 236.382671 266.933508 
L 238.16404 266.933508 
L 238.16404 216.169967 
L 236.382671 216.169967 
z
" style="fill:#1f77b4;"/>
   </g>
   <g id="patch_77">
    <path clip-path="url(#p6941a998bb)" d="M 238.609383 266.933508 
L 240.390752 266.933508 
L 240.390752 233.619934 
L 238.609383 233.619934 
z
" style="fill:#1f77b4;"/>
   </g>
   <g id="patch_78">
    <path clip-path="url(#p6941a998bb)" d="M 240.836094 266.933508 
L 242.617464 266.933508 
L 242.617464 198.72 
L 240.836094 198.72 
z
" style="fill:#1f77b4;"/>
   </g>
   <g id="patch_79">
    <path clip-path="url(#p6941a998bb)" d="M 243.062806 266.933508 
L 244.844175 266.933508 
L 244.844175 224.894951 
L 243.062806 224.894951 
z
" style="fill:#1f77b4;"/>
   </g>
   <g id="patch_80">
    <path clip-path="url(#p6941a998bb)" d="M 245.289517 266.933508 
L 247.070887 266.933508 
L 247.070887 203.479082 
L 245.289517 203.479082 
z
" style="fill:#1f77b4;"/>
   </g>
   <g id="patch_81">
    <path clip-path="url(#p6941a998bb)" d="M 247.516229 266.933508 
L 249.297598 266.933508 
L 249.297598 235.206295 
L 247.516229 235.206295 
z
" style="fill:#1f77b4;"/>
   </g>
   <g id="patch_82">
    <path clip-path="url(#p6941a998bb)" d="M 249.742941 266.933508 
L 251.52431 266.933508 
L 251.52431 228.067672 
L 249.742941 228.067672 
z
" style="fill:#1f77b4;"/>
   </g>
   <g id="patch_83">
    <path clip-path="url(#p6941a998bb)" d="M 251.969652 266.933508 
L 253.751021 266.933508 
L 253.751021 224.894951 
L 251.969652 224.894951 
z
" style="fill:#1f77b4;"/>
   </g>
   <g id="patch_84">
    <path clip-path="url(#p6941a998bb)" d="M 254.196364 266.933508 
L 255.977733 266.933508 
L 255.977733 239.172197 
L 254.196364 239.172197 
z
" style="fill:#1f77b4;"/>
   </g>
   <g id="patch_85">
    <path clip-path="url(#p6941a998bb)" d="M 256.423075 266.933508 
L 258.204444 266.933508 
L 258.204444 244.724459 
L 256.423075 244.724459 
z
" style="fill:#1f77b4;"/>
   </g>
   <g id="patch_86">
    <path clip-path="url(#p6941a998bb)" d="M 258.649787 266.933508 
L 260.431156 266.933508 
L 260.431156 225.688131 
L 258.649787 225.688131 
z
" style="fill:#1f77b4;"/>
   </g>
   <g id="patch_87">
    <path clip-path="url(#p6941a998bb)" d="M 260.876498 266.933508 
L 262.657868 266.933508 
L 262.657868 213.790426 
L 260.876498 213.790426 
z
" style="fill:#1f77b4;"/>
   </g>
   <g id="patch_88">
    <path clip-path="url(#p6941a998bb)" d="M 263.10321 266.933508 
L 264.884579 266.933508 
L 264.884579 223.30859 
L 263.10321 223.30859 
z
" style="fill:#1f77b4;"/>
   </g>
   <g id="patch_89">
    <path clip-path="url(#p6941a998bb)" d="M 265.329921 266.933508 
L 267.111291 266.933508 
L 267.111291 219.342689 
L 265.329921 219.342689 
z
" style="fill:#1f77b4;"/>
   </g>
   <g id="patch_90">
    <path clip-path="url(#p6941a998bb)" d="M 267.556633 266.933508 
L 269.338002 266.933508 
L 269.338002 253.449443 
L 267.556633 253.449443 
z
" style="fill:#1f77b4;"/>
   </g>
   <g id="patch_91">
    <path clip-path="url(#p6941a998bb)" d="M 269.783345 266.933508 
L 271.564714 266.933508 
L 271.564714 239.172197 
L 269.783345 239.172197 
z
" style="fill:#1f77b4;"/>
   </g>
   <g id="patch_92">
    <path clip-path="url(#p6941a998bb)" d="M 272.010056 266.933508 
L 273.791425 266.933508 
L 273.791425 223.30859 
L 272.010056 223.30859 
z
" style="fill:#1f77b4;"/>
   </g>
   <g id="patch_93">
    <path clip-path="url(#p6941a998bb)" d="M 274.236768 266.933508 
L 276.018137 266.933508 
L 276.018137 251.069902 
L 274.236768 251.069902 
z
" style="fill:#1f77b4;"/>
   </g>
   <g id="patch_94">
    <path clip-path="url(#p6941a998bb)" d="M 276.463479 266.933508 
L 278.244848 266.933508 
L 278.244848 228.860852 
L 276.463479 228.860852 
z
" style="fill:#1f77b4;"/>
   </g>
   <g id="patch_95">
    <path clip-path="url(#p6941a998bb)" d="M 278.690191 266.933508 
L 280.47156 266.933508 
L 280.47156 183.649574 
L 278.690191 183.649574 
z
" style="fill:#1f77b4;"/>
   </g>
   <g id="patch_96">
    <path clip-path="url(#p6941a998bb)" d="M 280.916902 266.933508 
L 282.698272 266.933508 
L 282.698272 240.758557 
L 280.916902 240.758557 
z
" style="fill:#1f77b4;"/>
   </g>
   <g id="patch_97">
    <path clip-path="url(#p6941a998bb)" d="M 283.143614 266.933508 
L 284.924983 266.933508 
L 284.924983 232.826754 
L 283.143614 232.826754 
z
" style="fill:#1f77b4;"/>
   </g>
   <g id="patch_98">
    <path clip-path="url(#p6941a998bb)" d="M 285.370325 266.933508 
L 287.151695 266.933508 
L 287.151695 233.619934 
L 285.370325 233.619934 
z
" style="fill:#1f77b4;"/>
   </g>
   <g id="patch_99">
    <path clip-path="url(#p6941a998bb)" d="M 287.597037 266.933508 
L 289.378406 266.933508 
L 289.378406 222.51541 
L 287.597037 222.51541 
z
" style="fill:#1f77b4;"/>
   </g>
   <g id="patch_100">
    <path clip-path="url(#p6941a998bb)" d="M 289.823749 266.933508 
L 291.605118 266.933508 
L 291.605118 216.963148 
L 289.823749 216.963148 
z
" style="fill:#1f77b4;"/>
   </g>
   <g id="patch_101">
    <path clip-path="url(#p6941a998bb)" d="M 292.05046 266.933508 
L 293.831829 266.933508 
L 293.831829 250.276721 
L 292.05046 250.276721 
z
" style="fill:#1f77b4;"/>
   </g>
   <g id="patch_102">
    <path clip-path="url(#p6941a998bb)" d="M 294.277172 266.933508 
L 296.058541 266.933508 
L 296.058541 228.860852 
L 294.277172 228.860852 
z
" style="fill:#1f77b4;"/>
   </g>
   <g id="patch_103">
    <path clip-path="url(#p6941a998bb)" d="M 296.503883 266.933508 
L 298.285253 266.933508 
L 298.285253 233.619934 
L 296.503883 233.619934 
z
" style="fill:#1f77b4;"/>
   </g>
   <g id="patch_104">
    <path clip-path="url(#p6941a998bb)" d="M 298.730595 266.933508 
L 300.511964 266.933508 
L 300.511964 243.931279 
L 298.730595 243.931279 
z
" style="fill:#1f77b4;"/>
   </g>
   <g id="patch_105">
    <path clip-path="url(#p6941a998bb)" d="M 300.957306 266.933508 
L 302.738676 266.933508 
L 302.738676 248.690361 
L 300.957306 248.690361 
z
" style="fill:#1f77b4;"/>
   </g>
   <g id="patch_106">
    <path clip-path="url(#p6941a998bb)" d="M 303.184018 266.933508 
L 304.965387 266.933508 
L 304.965387 247.104 
L 303.184018 247.104 
z
" style="fill:#1f77b4;"/>
   </g>
   <g id="patch_107">
    <path clip-path="url(#p6941a998bb)" d="M 305.41073 266.933508 
L 307.192099 266.933508 
L 307.192099 219.342689 
L 305.41073 219.342689 
z
" style="fill:#1f77b4;"/>
   </g>
   <g id="patch_108">
    <path clip-path="url(#p6941a998bb)" d="M 307.637441 266.933508 
L 309.41881 266.933508 
L 309.41881 222.51541 
L 307.637441 222.51541 
z
" style="fill:#1f77b4;"/>
   </g>
   <g id="patch_109">
    <path clip-path="url(#p6941a998bb)" d="M 309.864153 266.933508 
L 311.645522 266.933508 
L 311.645522 226.481311 
L 309.864153 226.481311 
z
" style="fill:#1f77b4;"/>
   </g>
   <g id="patch_110">
    <path clip-path="url(#p6941a998bb)" d="M 312.090864 266.933508 
L 313.872233 266.933508 
L 313.872233 230.447213 
L 312.090864 230.447213 
z
" style="fill:#1f77b4;"/>
   </g>
   <g id="patch_111">
    <path clip-path="url(#p6941a998bb)" d="M 314.317576 266.933508 
L 316.098945 266.933508 
L 316.098945 220.929049 
L 314.317576 220.929049 
z
" style="fill:#1f77b4;"/>
   </g>
   <g id="patch_112">
    <path clip-path="url(#p6941a998bb)" d="M 316.544287 266.933508 
L 318.325657 266.933508 
L 318.325657 236.792656 
L 316.544287 236.792656 
z
" style="fill:#1f77b4;"/>
   </g>
   <g id="patch_113">
    <path clip-path="url(#p6941a998bb)" d="M 318.770999 266.933508 
L 320.552368 266.933508 
L 320.552368 192.374557 
L 318.770999 192.374557 
z
" style="fill:#1f77b4;"/>
   </g>
   <g id="patch_114">
    <path clip-path="url(#p6941a998bb)" d="M 320.99771 266.933508 
L 322.77908 266.933508 
L 322.77908 180.476852 
L 320.99771 180.476852 
z
" style="fill:#1f77b4;"/>
   </g>
   <g id="patch_115">
    <path clip-path="url(#p6941a998bb)" d="M 323.224422 266.933508 
L 325.005791 266.933508 
L 325.005791 212.204066 
L 323.224422 212.204066 
z
" style="fill:#1f77b4;"/>
   </g>
   <g id="patch_116">
    <path clip-path="url(#p6941a998bb)" d="M 325.451134 266.933508 
L 327.232503 266.933508 
L 327.232503 212.204066 
L 325.451134 212.204066 
z
" style="fill:#1f77b4;"/>
   </g>
   <g id="patch_117">
    <path clip-path="url(#p6941a998bb)" d="M 327.677845 266.933508 
L 329.459214 266.933508 
L 329.459214 235.999475 
L 327.677845 235.999475 
z
" style="fill:#1f77b4;"/>
   </g>
   <g id="patch_118">
    <path clip-path="url(#p6941a998bb)" d="M 329.904557 266.933508 
L 331.685926 266.933508 
L 331.685926 190.788197 
L 329.904557 190.788197 
z
" style="fill:#1f77b4;"/>
   </g>
   <g id="patch_119">
    <path clip-path="url(#p6941a998bb)" d="M 332.131268 266.933508 
L 333.912637 266.933508 
L 333.912637 161.440525 
L 332.131268 161.440525 
z
" style="fill:#1f77b4;"/>
   </g>
   <g id="patch_120">
    <path clip-path="url(#p6941a998bb)" d="M 334.35798 266.933508 
L 336.139349 266.933508 
L 336.139349 179.683672 
L 334.35798 179.683672 
z
" style="fill:#1f77b4;"/>
   </g>
   <g id="patch_121">
    <path clip-path="url(#p6941a998bb)" d="M 336.584691 266.933508 
L 338.366061 266.933508 
L 338.366061 201.099541 
L 336.584691 201.099541 
z
" style="fill:#1f77b4;"/>
   </g>
   <g id="patch_122">
    <path clip-path="url(#p6941a998bb)" d="M 338.811403 266.933508 
L 340.592772 266.933508 
L 340.592772 168.579148 
L 338.811403 168.579148 
z
" style="fill:#1f77b4;"/>
   </g>
   <g id="patch_123">
    <path clip-path="url(#p6941a998bb)" d="M 341.038114 266.933508 
L 342.819484 266.933508 
L 342.819484 201.892721 
L 341.038114 201.892721 
z
" style="fill:#1f77b4;"/>
   </g>
   <g id="patch_124">
    <path clip-path="url(#p6941a998bb)" d="M 343.264826 266.933508 
L 345.046195 266.933508 
L 345.046195 133.679213 
L 343.264826 133.679213 
z
" style="fill:#1f77b4;"/>
   </g>
   <g id="patch_125">
    <path clip-path="url(#p6941a998bb)" d="M 345.491538 266.933508 
L 347.272907 266.933508 
L 347.272907 166.199607 
L 345.491538 166.199607 
z
" style="fill:#1f77b4;"/>
   </g>
   <g id="patch_126">
    <path clip-path="url(#p6941a998bb)" d="M 347.718249 266.933508 
L 349.499618 266.933508 
L 349.499618 140.024656 
L 347.718249 140.024656 
z
" style="fill:#1f77b4;"/>
   </g>
   <g id="patch_127">
    <path clip-path="url(#p6941a998bb)" d="M 349.944961 266.933508 
L 351.72633 266.933508 
L 351.72633 76.57023 
L 349.944961 76.57023 
z
" style="fill:#1f77b4;"/>
   </g>
   <g id="patch_128">
    <path clip-path="url(#p6941a998bb)" d="M 352.171672 266.933508 
L 353.953042 266.933508 
L 353.953042 169.372328 
L 352.171672 169.372328 
z
" style="fill:#1f77b4;"/>
   </g>
   <g id="patch_129">
    <path clip-path="url(#p6941a998bb)" d="M 354.398384 266.933508 
L 356.179753 266.933508 
L 356.179753 215.376787 
L 354.398384 215.376787 
z
" style="fill:#1f77b4;"/>
   </g>
   <g id="patch_130">
    <path clip-path="url(#p6941a998bb)" d="M 356.625095 266.933508 
L 358.406465 266.933508 
L 358.406465 84.502033 
L 356.625095 84.502033 
z
" style="fill:#1f77b4;"/>
   </g>
   <g id="patch_131">
    <path clip-path="url(#p6941a998bb)" d="M 358.851807 266.933508 
L 360.633176 266.933508 
L 360.633176 166.992787 
L 358.851807 166.992787 
z
" style="fill:#1f77b4;"/>
   </g>
   <g id="patch_132">
    <path clip-path="url(#p6941a998bb)" d="M 361.078519 266.933508 
L 362.859888 266.933508 
L 362.859888 214.583607 
L 361.078519 214.583607 
z
" style="fill:#1f77b4;"/>
   </g>
   <g id="patch_133">
    <path clip-path="url(#p6941a998bb)" d="M 363.30523 266.933508 
L 365.086599 266.933508 
L 365.086599 177.304131 
L 363.30523 177.304131 
z
" style="fill:#1f77b4;"/>
   </g>
   <g id="patch_134">
    <path clip-path="url(#p6941a998bb)" d="M 365.531942 266.933508 
L 367.313311 266.933508 
L 367.313311 134.472393 
L 365.531942 134.472393 
z
" style="fill:#1f77b4;"/>
   </g>
   <g id="patch_135">
    <path clip-path="url(#p6941a998bb)" d="M 367.758653 266.933508 
L 369.540022 266.933508 
L 369.540022 151.12918 
L 367.758653 151.12918 
z
" style="fill:#1f77b4;"/>
   </g>
   <g id="patch_136">
    <path clip-path="url(#p6941a998bb)" d="M 369.985365 266.933508 
L 371.766734 266.933508 
L 371.766734 156.681443 
L 369.985365 156.681443 
z
" style="fill:#1f77b4;"/>
   </g>
   <g id="patch_137">
    <path clip-path="url(#p6941a998bb)" d="M 372.212076 266.933508 
L 373.993446 266.933508 
L 373.993446 128.920131 
L 372.212076 128.920131 
z
" style="fill:#1f77b4;"/>
   </g>
   <g id="patch_138">
    <path clip-path="url(#p6941a998bb)" d="M 374.438788 266.933508 
L 376.220157 266.933508 
L 376.220157 144.783738 
L 374.438788 144.783738 
z
" style="fill:#1f77b4;"/>
   </g>
   <g id="patch_139">
    <path clip-path="url(#p6941a998bb)" d="M 376.665499 266.933508 
L 378.446869 266.933508 
L 378.446869 151.922361 
L 376.665499 151.922361 
z
" style="fill:#1f77b4;"/>
   </g>
   <g id="patch_140">
    <path clip-path="url(#p6941a998bb)" d="M 378.892211 266.933508 
L 380.67358 266.933508 
L 380.67358 180.476852 
L 378.892211 180.476852 
z
" style="fill:#1f77b4;"/>
   </g>
   <g id="patch_141">
    <path clip-path="url(#p6941a998bb)" d="M 381.118923 266.933508 
L 382.900292 266.933508 
L 382.900292 77.36341 
L 381.118923 77.36341 
z
" style="fill:#1f77b4;"/>
   </g>
   <g id="patch_142">
    <path clip-path="url(#p6941a998bb)" d="M 383.345634 266.933508 
L 385.127003 266.933508 
L 385.127003 96.399738 
L 383.345634 96.399738 
z
" style="fill:#1f77b4;"/>
   </g>
   <g id="patch_143">
    <path clip-path="url(#p6941a998bb)" d="M 385.572346 266.933508 
L 387.353715 266.933508 
L 387.353715 120.988328 
L 385.572346 120.988328 
z
" style="fill:#1f77b4;"/>
   </g>
   <g id="patch_144">
    <path clip-path="url(#p6941a998bb)" d="M 387.799057 266.933508 
L 389.580426 266.933508 
L 389.580426 133.679213 
L 387.799057 133.679213 
z
" style="fill:#1f77b4;"/>
   </g>
   <g id="patch_145">
    <path clip-path="url(#p6941a998bb)" d="M 390.025769 266.933508 
L 391.807138 266.933508 
L 391.807138 124.161049 
L 390.025769 124.161049 
z
" style="fill:#1f77b4;"/>
   </g>
   <g id="patch_146">
    <path clip-path="url(#p6941a998bb)" d="M 392.25248 266.933508 
L 394.03385 266.933508 
L 394.03385 150.336 
L 392.25248 150.336 
z
" style="fill:#1f77b4;"/>
   </g>
   <g id="patch_147">
    <path clip-path="url(#p6941a998bb)" d="M 394.479192 266.933508 
L 396.260561 266.933508 
L 396.260561 129.713311 
L 394.479192 129.713311 
z
" style="fill:#1f77b4;"/>
   </g>
   <g id="patch_148">
    <path clip-path="url(#p6941a998bb)" d="M 396.705903 266.933508 
L 398.487273 266.933508 
L 398.487273 127.33377 
L 396.705903 127.33377 
z
" style="fill:#1f77b4;"/>
   </g>
   <g id="matplotlib.axis_1">
    <g id="xtick_1">
     <g id="line2d_1">
      <defs>
       <path d="M 0 0 
L 0 3.5 
" id="m90aeba1c0d" style="stroke:#000000;stroke-width:0.8;"/>
      </defs>
      <g>
       <use style="stroke:#000000;stroke-width:0.8;" x="76.950123" xlink:href="#m90aeba1c0d" y="307.584"/>
      </g>
     </g>
     <g id="text_1">
      <!-- 2020-03 -->
      <g transform="translate(56.058717 322.182437)scale(0.1 -0.1)">
       <defs>
        <path d="M 19.1875 8.296875 
L 53.609375 8.296875 
L 53.609375 0 
L 7.328125 0 
L 7.328125 8.296875 
Q 12.9375 14.109375 22.625 23.890625 
Q 32.328125 33.6875 34.8125 36.53125 
Q 39.546875 41.84375 41.421875 45.53125 
Q 43.3125 49.21875 43.3125 52.78125 
Q 43.3125 58.59375 39.234375 62.25 
Q 35.15625 65.921875 28.609375 65.921875 
Q 23.96875 65.921875 18.8125 64.3125 
Q 13.671875 62.703125 7.8125 59.421875 
L 7.8125 69.390625 
Q 13.765625 71.78125 18.9375 73 
Q 24.125 74.21875 28.421875 74.21875 
Q 39.75 74.21875 46.484375 68.546875 
Q 53.21875 62.890625 53.21875 53.421875 
Q 53.21875 48.921875 51.53125 44.890625 
Q 49.859375 40.875 45.40625 35.40625 
Q 44.1875 33.984375 37.640625 27.21875 
Q 31.109375 20.453125 19.1875 8.296875 
z
" id="DejaVuSans-50"/>
        <path d="M 31.78125 66.40625 
Q 24.171875 66.40625 20.328125 58.90625 
Q 16.5 51.421875 16.5 36.375 
Q 16.5 21.390625 20.328125 13.890625 
Q 24.171875 6.390625 31.78125 6.390625 
Q 39.453125 6.390625 43.28125 13.890625 
Q 47.125 21.390625 47.125 36.375 
Q 47.125 51.421875 43.28125 58.90625 
Q 39.453125 66.40625 31.78125 66.40625 
z
M 31.78125 74.21875 
Q 44.046875 74.21875 50.515625 64.515625 
Q 56.984375 54.828125 56.984375 36.375 
Q 56.984375 17.96875 50.515625 8.265625 
Q 44.046875 -1.421875 31.78125 -1.421875 
Q 19.53125 -1.421875 13.0625 8.265625 
Q 6.59375 17.96875 6.59375 36.375 
Q 6.59375 54.828125 13.0625 64.515625 
Q 19.53125 74.21875 31.78125 74.21875 
z
" id="DejaVuSans-48"/>
        <path d="M 4.890625 31.390625 
L 31.203125 31.390625 
L 31.203125 23.390625 
L 4.890625 23.390625 
z
" id="DejaVuSans-45"/>
        <path d="M 40.578125 39.3125 
Q 47.65625 37.796875 51.625 33 
Q 55.609375 28.21875 55.609375 21.1875 
Q 55.609375 10.40625 48.1875 4.484375 
Q 40.765625 -1.421875 27.09375 -1.421875 
Q 22.515625 -1.421875 17.65625 -0.515625 
Q 12.796875 0.390625 7.625 2.203125 
L 7.625 11.71875 
Q 11.71875 9.328125 16.59375 8.109375 
Q 21.484375 6.890625 26.8125 6.890625 
Q 36.078125 6.890625 40.9375 10.546875 
Q 45.796875 14.203125 45.796875 21.1875 
Q 45.796875 27.640625 41.28125 31.265625 
Q 36.765625 34.90625 28.71875 34.90625 
L 20.21875 34.90625 
L 20.21875 43.015625 
L 29.109375 43.015625 
Q 36.375 43.015625 40.234375 45.921875 
Q 44.09375 48.828125 44.09375 54.296875 
Q 44.09375 59.90625 40.109375 62.90625 
Q 36.140625 65.921875 28.71875 65.921875 
Q 24.65625 65.921875 20.015625 65.03125 
Q 15.375 64.15625 9.8125 62.3125 
L 9.8125 71.09375 
Q 15.4375 72.65625 20.34375 73.4375 
Q 25.25 74.21875 29.59375 74.21875 
Q 40.828125 74.21875 47.359375 69.109375 
Q 53.90625 64.015625 53.90625 55.328125 
Q 53.90625 49.265625 50.4375 45.09375 
Q 46.96875 40.921875 40.578125 39.3125 
z
" id="DejaVuSans-51"/>
       </defs>
       <use xlink:href="#DejaVuSans-50"/>
       <use x="63.623047" xlink:href="#DejaVuSans-48"/>
       <use x="127.246094" xlink:href="#DejaVuSans-50"/>
       <use x="190.869141" xlink:href="#DejaVuSans-48"/>
       <use x="254.492188" xlink:href="#DejaVuSans-45"/>
       <use x="290.576172" xlink:href="#DejaVuSans-48"/>
       <use x="354.199219" xlink:href="#DejaVuSans-51"/>
      </g>
     </g>
    </g>
    <g id="xtick_2">
     <g id="line2d_2">
      <g>
       <use style="stroke:#000000;stroke-width:0.8;" x="145.978182" xlink:href="#m90aeba1c0d" y="307.584"/>
      </g>
     </g>
     <g id="text_2">
      <!-- 2020-04 -->
      <g transform="translate(125.086776 322.182437)scale(0.1 -0.1)">
       <defs>
        <path d="M 37.796875 64.3125 
L 12.890625 25.390625 
L 37.796875 25.390625 
z
M 35.203125 72.90625 
L 47.609375 72.90625 
L 47.609375 25.390625 
L 58.015625 25.390625 
L 58.015625 17.1875 
L 47.609375 17.1875 
L 47.609375 0 
L 37.796875 0 
L 37.796875 17.1875 
L 4.890625 17.1875 
L 4.890625 26.703125 
z
" id="DejaVuSans-52"/>
       </defs>
       <use xlink:href="#DejaVuSans-50"/>
       <use x="63.623047" xlink:href="#DejaVuSans-48"/>
       <use x="127.246094" xlink:href="#DejaVuSans-50"/>
       <use x="190.869141" xlink:href="#DejaVuSans-48"/>
       <use x="254.492188" xlink:href="#DejaVuSans-45"/>
       <use x="290.576172" xlink:href="#DejaVuSans-48"/>
       <use x="354.199219" xlink:href="#DejaVuSans-52"/>
      </g>
     </g>
    </g>
    <g id="xtick_3">
     <g id="line2d_3">
      <g>
       <use style="stroke:#000000;stroke-width:0.8;" x="212.779529" xlink:href="#m90aeba1c0d" y="307.584"/>
      </g>
     </g>
     <g id="text_3">
      <!-- 2020-05 -->
      <g transform="translate(191.888122 322.182437)scale(0.1 -0.1)">
       <defs>
        <path d="M 10.796875 72.90625 
L 49.515625 72.90625 
L 49.515625 64.59375 
L 19.828125 64.59375 
L 19.828125 46.734375 
Q 21.96875 47.46875 24.109375 47.828125 
Q 26.265625 48.1875 28.421875 48.1875 
Q 40.625 48.1875 47.75 41.5 
Q 54.890625 34.8125 54.890625 23.390625 
Q 54.890625 11.625 47.5625 5.09375 
Q 40.234375 -1.421875 26.90625 -1.421875 
Q 22.3125 -1.421875 17.546875 -0.640625 
Q 12.796875 0.140625 7.71875 1.703125 
L 7.71875 11.625 
Q 12.109375 9.234375 16.796875 8.0625 
Q 21.484375 6.890625 26.703125 6.890625 
Q 35.15625 6.890625 40.078125 11.328125 
Q 45.015625 15.765625 45.015625 23.390625 
Q 45.015625 31 40.078125 35.4375 
Q 35.15625 39.890625 26.703125 39.890625 
Q 22.75 39.890625 18.8125 39.015625 
Q 14.890625 38.140625 10.796875 36.28125 
z
" id="DejaVuSans-53"/>
       </defs>
       <use xlink:href="#DejaVuSans-50"/>
       <use x="63.623047" xlink:href="#DejaVuSans-48"/>
       <use x="127.246094" xlink:href="#DejaVuSans-50"/>
       <use x="190.869141" xlink:href="#DejaVuSans-48"/>
       <use x="254.492188" xlink:href="#DejaVuSans-45"/>
       <use x="290.576172" xlink:href="#DejaVuSans-48"/>
       <use x="354.199219" xlink:href="#DejaVuSans-53"/>
      </g>
     </g>
    </g>
    <g id="xtick_4">
     <g id="line2d_4">
      <g>
       <use style="stroke:#000000;stroke-width:0.8;" x="281.807587" xlink:href="#m90aeba1c0d" y="307.584"/>
      </g>
     </g>
     <g id="text_4">
      <!-- 2020-06 -->
      <g transform="translate(260.916181 322.182437)scale(0.1 -0.1)">
       <defs>
        <path d="M 33.015625 40.375 
Q 26.375 40.375 22.484375 35.828125 
Q 18.609375 31.296875 18.609375 23.390625 
Q 18.609375 15.53125 22.484375 10.953125 
Q 26.375 6.390625 33.015625 6.390625 
Q 39.65625 6.390625 43.53125 10.953125 
Q 47.40625 15.53125 47.40625 23.390625 
Q 47.40625 31.296875 43.53125 35.828125 
Q 39.65625 40.375 33.015625 40.375 
z
M 52.59375 71.296875 
L 52.59375 62.3125 
Q 48.875 64.0625 45.09375 64.984375 
Q 41.3125 65.921875 37.59375 65.921875 
Q 27.828125 65.921875 22.671875 59.328125 
Q 17.53125 52.734375 16.796875 39.40625 
Q 19.671875 43.65625 24.015625 45.921875 
Q 28.375 48.1875 33.59375 48.1875 
Q 44.578125 48.1875 50.953125 41.515625 
Q 57.328125 34.859375 57.328125 23.390625 
Q 57.328125 12.15625 50.6875 5.359375 
Q 44.046875 -1.421875 33.015625 -1.421875 
Q 20.359375 -1.421875 13.671875 8.265625 
Q 6.984375 17.96875 6.984375 36.375 
Q 6.984375 53.65625 15.1875 63.9375 
Q 23.390625 74.21875 37.203125 74.21875 
Q 40.921875 74.21875 44.703125 73.484375 
Q 48.484375 72.75 52.59375 71.296875 
z
" id="DejaVuSans-54"/>
       </defs>
       <use xlink:href="#DejaVuSans-50"/>
       <use x="63.623047" xlink:href="#DejaVuSans-48"/>
       <use x="127.246094" xlink:href="#DejaVuSans-50"/>
       <use x="190.869141" xlink:href="#DejaVuSans-48"/>
       <use x="254.492188" xlink:href="#DejaVuSans-45"/>
       <use x="290.576172" xlink:href="#DejaVuSans-48"/>
       <use x="354.199219" xlink:href="#DejaVuSans-54"/>
      </g>
     </g>
    </g>
    <g id="xtick_5">
     <g id="line2d_5">
      <g>
       <use style="stroke:#000000;stroke-width:0.8;" x="348.608934" xlink:href="#m90aeba1c0d" y="307.584"/>
      </g>
     </g>
     <g id="text_5">
      <!-- 2020-07 -->
      <g transform="translate(327.717528 322.182437)scale(0.1 -0.1)">
       <defs>
        <path d="M 8.203125 72.90625 
L 55.078125 72.90625 
L 55.078125 68.703125 
L 28.609375 0 
L 18.3125 0 
L 43.21875 64.59375 
L 8.203125 64.59375 
z
" id="DejaVuSans-55"/>
       </defs>
       <use xlink:href="#DejaVuSans-50"/>
       <use x="63.623047" xlink:href="#DejaVuSans-48"/>
       <use x="127.246094" xlink:href="#DejaVuSans-50"/>
       <use x="190.869141" xlink:href="#DejaVuSans-48"/>
       <use x="254.492188" xlink:href="#DejaVuSans-45"/>
       <use x="290.576172" xlink:href="#DejaVuSans-48"/>
       <use x="354.199219" xlink:href="#DejaVuSans-55"/>
      </g>
     </g>
    </g>
   </g>
   <g id="matplotlib.axis_2">
    <g id="ytick_1">
     <g id="line2d_6">
      <defs>
       <path d="M 0 0 
L -3.5 0 
" id="m9ef032dab1" style="stroke:#000000;stroke-width:0.8;"/>
      </defs>
      <g>
       <use style="stroke:#000000;stroke-width:0.8;" x="57.6" xlink:href="#m9ef032dab1" y="306.592525"/>
      </g>
     </g>
     <g id="text_6">
      <!-- −50 -->
      <g transform="translate(29.495313 310.391743)scale(0.1 -0.1)">
       <defs>
        <path d="M 10.59375 35.5 
L 73.1875 35.5 
L 73.1875 27.203125 
L 10.59375 27.203125 
z
" id="DejaVuSans-8722"/>
       </defs>
       <use xlink:href="#DejaVuSans-8722"/>
       <use x="83.789062" xlink:href="#DejaVuSans-53"/>
       <use x="147.412109" xlink:href="#DejaVuSans-48"/>
      </g>
     </g>
    </g>
    <g id="ytick_2">
     <g id="line2d_7">
      <g>
       <use style="stroke:#000000;stroke-width:0.8;" x="57.6" xlink:href="#m9ef032dab1" y="266.933508"/>
      </g>
     </g>
     <g id="text_7">
      <!-- 0 -->
      <g transform="translate(44.2375 270.732727)scale(0.1 -0.1)">
       <use xlink:href="#DejaVuSans-48"/>
      </g>
     </g>
    </g>
    <g id="ytick_3">
     <g id="line2d_8">
      <g>
       <use style="stroke:#000000;stroke-width:0.8;" x="57.6" xlink:href="#m9ef032dab1" y="227.274492"/>
      </g>
     </g>
     <g id="text_8">
      <!-- 50 -->
      <g transform="translate(37.875 231.073711)scale(0.1 -0.1)">
       <use xlink:href="#DejaVuSans-53"/>
       <use x="63.623047" xlink:href="#DejaVuSans-48"/>
      </g>
     </g>
    </g>
    <g id="ytick_4">
     <g id="line2d_9">
      <g>
       <use style="stroke:#000000;stroke-width:0.8;" x="57.6" xlink:href="#m9ef032dab1" y="187.615475"/>
      </g>
     </g>
     <g id="text_9">
      <!-- 100 -->
      <g transform="translate(31.5125 191.414694)scale(0.1 -0.1)">
       <defs>
        <path d="M 12.40625 8.296875 
L 28.515625 8.296875 
L 28.515625 63.921875 
L 10.984375 60.40625 
L 10.984375 69.390625 
L 28.421875 72.90625 
L 38.28125 72.90625 
L 38.28125 8.296875 
L 54.390625 8.296875 
L 54.390625 0 
L 12.40625 0 
z
" id="DejaVuSans-49"/>
       </defs>
       <use xlink:href="#DejaVuSans-49"/>
       <use x="63.623047" xlink:href="#DejaVuSans-48"/>
       <use x="127.246094" xlink:href="#DejaVuSans-48"/>
      </g>
     </g>
    </g>
    <g id="ytick_5">
     <g id="line2d_10">
      <g>
       <use style="stroke:#000000;stroke-width:0.8;" x="57.6" xlink:href="#m9ef032dab1" y="147.956459"/>
      </g>
     </g>
     <g id="text_10">
      <!-- 150 -->
      <g transform="translate(31.5125 151.755678)scale(0.1 -0.1)">
       <use xlink:href="#DejaVuSans-49"/>
       <use x="63.623047" xlink:href="#DejaVuSans-53"/>
       <use x="127.246094" xlink:href="#DejaVuSans-48"/>
      </g>
     </g>
    </g>
    <g id="ytick_6">
     <g id="line2d_11">
      <g>
       <use style="stroke:#000000;stroke-width:0.8;" x="57.6" xlink:href="#m9ef032dab1" y="108.297443"/>
      </g>
     </g>
     <g id="text_11">
      <!-- 200 -->
      <g transform="translate(31.5125 112.096661)scale(0.1 -0.1)">
       <use xlink:href="#DejaVuSans-50"/>
       <use x="63.623047" xlink:href="#DejaVuSans-48"/>
       <use x="127.246094" xlink:href="#DejaVuSans-48"/>
      </g>
     </g>
    </g>
    <g id="ytick_7">
     <g id="line2d_12">
      <g>
       <use style="stroke:#000000;stroke-width:0.8;" x="57.6" xlink:href="#m9ef032dab1" y="68.638426"/>
      </g>
     </g>
     <g id="text_12">
      <!-- 250 -->
      <g transform="translate(31.5125 72.437645)scale(0.1 -0.1)">
       <use xlink:href="#DejaVuSans-50"/>
       <use x="63.623047" xlink:href="#DejaVuSans-53"/>
       <use x="127.246094" xlink:href="#DejaVuSans-48"/>
      </g>
     </g>
    </g>
   </g>
   <g id="patch_149">
    <path d="M 57.6 307.584 
L 57.6 41.472 
" style="fill:none;stroke:#000000;stroke-linecap:square;stroke-linejoin:miter;stroke-width:0.8;"/>
   </g>
   <g id="patch_150">
    <path d="M 414.72 307.584 
L 414.72 41.472 
" style="fill:none;stroke:#000000;stroke-linecap:square;stroke-linejoin:miter;stroke-width:0.8;"/>
   </g>
   <g id="patch_151">
    <path d="M 57.6 307.584 
L 414.72 307.584 
" style="fill:none;stroke:#000000;stroke-linecap:square;stroke-linejoin:miter;stroke-width:0.8;"/>
   </g>
   <g id="patch_152">
    <path d="M 57.6 41.472 
L 414.72 41.472 
" style="fill:none;stroke:#000000;stroke-linecap:square;stroke-linejoin:miter;stroke-width:0.8;"/>
   </g>
  </g>
 </g>
 <defs>
  <clipPath id="p6941a998bb">
   <rect height="266.112" width="357.12" x="57.6" y="41.472"/>
  </clipPath>
 </defs>
</svg>
